<svg xmlns="http://www.w3.org/2000/svg" viewBox="0 0 400 300" fill="none">
  <rect width="400" height="300" rx="16" fill="#F8FAFC"/>
  <rect x="130" y="24" width="140" height="90" rx="14" fill="#0D9488" opacity="0.06"/>
  <circle cx="170" cy="52" r="10" fill="#0D9488" opacity="0.15"/>
  <circle cx="170" cy="52" r="4" fill="#0D9488"/>
  <circle cx="200" cy="48" r="8" fill="#0D9488" opacity="0.12"/>
  <circle cx="200" cy="48" r="3" fill="#0D9488"/>
  <circle cx="230" cy="52" r="10" fill="#0D9488" opacity="0.15"/>
  <circle cx="230" cy="52" r="4" fill="#0D9488"/>
  <rect x="152" y="66" width="8" height="12" rx="3" fill="#0D9488" opacity="0.1"/>
  <rect x="180" y="62" width="8" height="16" rx="3" fill="#0D9488" opacity="0.08"/>
  <rect x="210" y="62" width="8" height="16" rx="3" fill="#0D9488" opacity="0.1"/>
  <rect x="238" y="66" width="8" height="12" rx="3" fill="#0D9488" opacity="0.1"/>
  <path d="M158 95 L170 80 L182 95" stroke="#0D9488" stroke-width="2" stroke-linecap="round" stroke-linejoin="round" fill="none" opacity="0.3"/>
  <path d="M218 95 L230 80 L242 95" stroke="#0D9488" stroke-width="2" stroke-linecap="round" stroke-linejoin="round" fill="none" opacity="0.3"/>
  <text x="200" y="130" font-family="system-ui" font-size="13" font-weight="600" fill="#0F172A" text-anchor="middle">Family Coverage</text>
  <text x="200" y="146" font-family="system-ui" font-size="10" fill="#64748B" text-anchor="middle">Protect your whole family</text>
  <rect x="24" y="164" width="352" height="56" rx="10" fill="white" stroke="#E2E8F0"/>
  <circle cx="52" cy="192" r="10" fill="#0D9488" opacity="0.1"/>
  <text x="48" y="196" font-family="system-ui" font-size="10" font-weight="700" fill="#0D9488">+</text>
  <text x="72" y="188" font-family="system-ui" font-size="12" font-weight="600" fill="#0F172A">Family Plan</text>
  <text x="72" y="204" font-family="system-ui" font-size="10" fill="#64748B">Comprehensive coverage for you, spouse, and children</text>
  <rect x="280" y="170" width="80" height="40" rx="8" fill="#0D9488" opacity="0.1"/>
  <text x="320" y="194" font-family="system-ui" font-size="11" font-weight="600" fill="#0D9488" text-anchor="middle">$680/mo</text>
  <rect x="24" y="232" width="168" height="52" rx="10" fill="white" stroke="#E2E8F0"/>
  <text x="40" y="254" font-family="system-ui" font-size="10" font-weight="600" fill="#0F172A">Dental Coverage</text>
  <text x="40" y="270" font-family="system-ui" font-size="9" fill="#64748B">Preventive + basic</text>
  <rect x="208" y="232" width="168" height="52" rx="10" fill="white" stroke="#E2E8F0"/>
  <text x="224" y="254" font-family="system-ui" font-size="10" font-weight="600" fill="#0F172A">Vision Coverage</text>
  <text x="224" y="270" font-family="system-ui" font-size="9" fill="#64748B">Annual exams + glasses</text>
</svg>