<svg xmlns="http://www.w3.org/2000/svg" viewBox="0 0 400 300" fill="none">
  <rect width="400" height="300" rx="16" fill="#F8FAFC"/>
  <text x="200" y="30" font-family="system-ui" font-size="14" font-weight="700" fill="#0F172A" text-anchor="middle">Risk Management</text>
  <rect x="24" y="46" width="352" height="240" rx="12" fill="white" stroke="#E2E8F0"/>
  <rect x="40" y="60" width="320" height="44" rx="8" fill="#2563EB" opacity="0.05"/>
  <rect x="52" y="70" width="20" height="24" rx="4" fill="#2563EB" opacity="0.15"/>
  <text x="62" y="86" font-family="system-ui" font-size="10" font-weight="700" fill="#2563EB" text-anchor="middle">!</text>
  <text x="84" y="80" font-family="system-ui" font-size="11" font-weight="600" fill="#0F172A">Identify Risks</text>
  <text x="84" y="96" font-family="system-ui" font-size="9" fill="#64748B">Life, health, disability, property</text>
  <rect x="40" y="116" width="320" height="44" rx="8" fill="#0D9488" opacity="0.05"/>
  <rect x="52" y="126" width="20" height="24" rx="4" fill="#0D9488" opacity="0.15"/>
  <text x="62" y="142" font-family="system-ui" font-size="10" font-weight="700" fill="#0D9488" text-anchor="middle">&#x25B6;</text>
  <text x="84" y="136" font-family="system-ui" font-size="11" font-weight="600" fill="#0F172A">Assess Impact</text>
  <text x="84" y="152" font-family="system-ui" font-size="9" fill="#64748B">Likelihood x severity analysis</text>
  <rect x="40" y="172" width="320" height="44" rx="8" fill="#F59E0B" opacity="0.05"/>
  <rect x="52" y="182" width="20" height="24" rx="4" fill="#F59E0B" opacity="0.15"/>
  <text x="60" y="198" font-family="system-ui" font-size="10" font-weight="700" fill="#92400E">&#x2605;</text>
  <text x="84" y="192" font-family="system-ui" font-size="11" font-weight="600" fill="#0F172A">Choose Coverage</text>
  <text x="84" y="208" font-family="system-ui" font-size="9" fill="#64748B">Term life, health plan, umbrella</text>
  <rect x="40" y="228" width="320" height="44" rx="8" fill="#10B981" opacity="0.05"/>
  <rect x="52" y="238" width="20" height="24" rx="4" fill="#10B981" opacity="0.15"/>
  <text x="62" y="254" font-family="system-ui" font-size="10" font-weight="700" fill="#065F46" text-anchor="middle">&#x2713;</text>
  <text x="84" y="248" font-family="system-ui" font-size="11" font-weight="600" fill="#0F172A">Review Annually</text>
  <text x="84" y="264" font-family="system-ui" font-size="9" fill="#64748B">Adjust coverage as life changes</text>
</svg>