<svg xmlns="http://www.w3.org/2000/svg" viewBox="0 0 400 300" fill="none">
  <rect width="400" height="300" rx="16" fill="#F8FAFC"/>
  <text x="200" y="30" font-family="system-ui" font-size="14" font-weight="700" fill="#0F172A" text-anchor="middle">Compound Interest Growth</text>
  <rect x="24" y="46" width="352" height="140" rx="12" fill="white" stroke="#E2E8F0"/>
  <text x="40" y="68" font-family="system-ui" font-size="11" font-weight="600" fill="#0F172A">$10,000 invested at 8%</text>
  <line x1="40" y1="80" x2="360" y2="80" stroke="#E2E8F0" stroke-width="1"/>
  <rect x="40" y="90" width="50" height="12" rx="3" fill="#2563EB" opacity="0.15"/>
  <rect x="100" y="96" width="50" height="6" rx="2" fill="#2563EB" opacity="0.3"/>
  <text x="40" y="114" font-family="system-ui" font-size="9" fill="#64748B">1 Year</text>
  <text x="40" y="128" font-family="system-ui" font-size="10" fill="#0F172A">$10,800</text>
  <text x="120" y="114" font-family="system-ui" font-size="9" fill="#64748B">5 Years</text>
  <text x="120" y="128" font-family="system-ui" font-size="10" fill="#0F172A">$14,693</text>
  <text x="200" y="114" font-family="system-ui" font-size="9" fill="#64748B">10 Years</text>
  <text x="200" y="128" font-family="system-ui" font-size="10" fill="#0F172A">$21,589</text>
  <text x="280" y="114" font-family="system-ui" font-size="9" fill="#64748B">20 Years</text>
  <text x="280" y="128" font-family="system-ui" font-size="10" fill="#0F172A">$46,610</text>
  <text x="340" y="114" font-family="system-ui" font-size="9" fill="#64748B">30 Years</text>
  <text x="340" y="128" font-family="system-ui" font-size="10" fill="#F59E0B" font-weight="700">$100,627</text>
  <path d="M40 220 L76 218 L112 214 L148 206 L184 194 L220 176 L256 152 L292 126 L328 104 L364 90" stroke="#2563EB" stroke-width="3" stroke-linecap="round" stroke-linejoin="round" fill="none"/>
  <path d="M40 220 L76 218 L112 214 L148 206 L184 194 L220 176 L256 152 L292 126 L328 104 L364 90" fill="none" stroke="#2563EB" stroke-width="12" stroke-opacity="0.08" stroke-linecap="round" stroke-linejoin="round"/>
  <rect x="24" y="196" width="352" height="88" rx="12" fill="white" stroke="#E2E8F0"/>
  <text x="40" y="218" font-family="system-ui" font-size="10" fill="#64748B">Years</text>
  <text x="60" y="218" font-family="system-ui" font-size="9" fill="#94A3B8">0</text>
  <text x="130" y="218" font-family="system-ui" font-size="9" fill="#94A3B8">5</text>
  <text x="210" y="218" font-family="system-ui" font-size="9" fill="#94A3B8">10</text>
  <text x="280" y="218" font-family="system-ui" font-size="9" fill="#94A3B8">20</text>
  <text x="340" y="218" font-family="system-ui" font-size="9" fill="#94A3B8">30</text>
  <rect x="40" y="232" width="36" height="36" rx="6" fill="#2563EB" opacity="0.1"/>
  <text x="40" y="248" font-family="system-ui" font-size="10" font-weight="600" fill="#2563EB">$10K</text>
  <text x="88" y="248" font-family="system-ui" font-size="9" fill="#64748B">Initial investment</text>
  <text x="88" y="262" font-family="system-ui" font-size="9" fill="#64748B">grows to $100,627 in 30 years</text>
</svg>