<svg xmlns="http://www.w3.org/2000/svg" viewBox="0 0 400 300" fill="none">
  <rect width="400" height="300" rx="16" fill="#F8FAFC"/>
  <text x="200" y="32" font-family="system-ui" font-size="14" font-weight="700" fill="#0F172A" text-anchor="middle">Investment Portfolio</text>
  <rect x="24" y="48" width="352" height="48" rx="10" fill="white" stroke="#E2E8F0"/>
  <text x="40" y="70" font-family="system-ui" font-size="11" font-weight="600" fill="#0F172A">Portfolio Value</text>
  <text x="200" y="70" font-family="system-ui" font-size="18" font-weight="700" fill="#0F172A">$284,500</text>
  <text x="280" y="70" font-family="system-ui" font-size="10" fill="#10B981">&#x2191; 12.4%</text>
  <rect x="24" y="108" width="176" height="180" rx="12" fill="white" stroke="#E2E8F0"/>
  <circle cx="112" cy="192" r="72" fill="none" stroke="#2563EB" stroke-width="24" stroke-opacity="0.15" stroke-dasharray="170 0"/>
  <circle cx="112" cy="192" r="72" fill="none" stroke="#0D9488" stroke-width="24" stroke-opacity="0.15" stroke-dasharray="100 240" stroke-dashoffset="-30"/>
  <circle cx="112" cy="192" r="72" fill="none" stroke="#F59E0B" stroke-width="24" stroke-opacity="0.15" stroke-dasharray="50 290" stroke-dashoffset="-80"/>
  <circle cx="112" cy="192" r="72" fill="none" stroke="#8B5CF6" stroke-width="24" stroke-opacity="0.15" stroke-dasharray="30 310" stroke-dashoffset="-110"/>
  <text x="112" y="190" font-family="system-ui" font-size="14" font-weight="700" fill="#0F172A" text-anchor="middle">100%</text>
  <text x="112" y="206" font-family="system-ui" font-size="8" fill="#64748B" text-anchor="middle">allocated</text>
  <rect x="216" y="108" width="160" height="180" rx="12" fill="white" stroke="#E2E8F0"/>
  <rect x="228" y="120" width="136" height="1" fill="#E2E8F0"/>
  <rect x="228" y="130" width="10" height="10" rx="2" fill="#2563EB"/>
  <text x="246" y="139" font-family="system-ui" font-size="10" fill="#0F172A">Stocks</text>
  <text x="350" y="139" font-family="system-ui" font-size="10" font-weight="600" fill="#0F172A" text-anchor="end">50%</text>
  <rect x="228" y="154" width="10" height="10" rx="2" fill="#0D9488"/>
  <text x="246" y="163" font-family="system-ui" font-size="10" fill="#0F172A">Bonds</text>
  <text x="350" y="163" font-family="system-ui" font-size="10" font-weight="600" fill="#0F172A" text-anchor="end">25%</text>
  <rect x="228" y="178" width="10" height="10" rx="2" fill="#F59E0B"/>
  <text x="246" y="187" font-family="system-ui" font-size="10" fill="#0F172A">Real Estate</text>
  <text x="350" y="187" font-family="system-ui" font-size="10" font-weight="600" fill="#0F172A" text-anchor="end">15%</text>
  <rect x="228" y="202" width="10" height="10" rx="2" fill="#8B5CF6"/>
  <text x="246" y="211" font-family="system-ui" font-size="10" fill="#0F172A">Cash</text>
  <text x="350" y="211" font-family="system-ui" font-size="10" font-weight="600" fill="#0F172A" text-anchor="end">10%</text>
  <rect x="228" y="230" width="136" height="1" fill="#E2E8F0"/>
  <text x="228" y="250" font-family="system-ui" font-size="9" fill="#64748B">Target allocation</text>
  <text x="228" y="268" font-family="system-ui" font-size="9" fill="#64748B">Balanced portfolio</text>
  <text x="228" y="282" font-family="system-ui" font-size="9" fill="#64748B">Low cost index funds</text>
</svg>