<svg xmlns="http://www.w3.org/2000/svg" viewBox="0 0 400 300" fill="none">
  <rect width="400" height="300" rx="16" fill="#F8FAFC"/>
  <text x="200" y="30" font-family="system-ui" font-size="14" font-weight="700" fill="#0F172A" text-anchor="middle">ROI Calculator</text>
  <rect x="24" y="46" width="168" height="58" rx="10" fill="white" stroke="#E2E8F0"/>
  <text x="40" y="66" font-family="system-ui" font-size="11" fill="#64748B">Initial Investment</text>
  <text x="40" y="86" font-family="system-ui" font-size="18" font-weight="700" fill="#0F172A">$50,000</text>
  <rect x="208" y="46" width="168" height="58" rx="10" fill="white" stroke="#E2E8F0"/>
  <text x="224" y="66" font-family="system-ui" font-size="11" fill="#64748B">Final Value</text>
  <text x="224" y="86" font-family="system-ui" font-size="18" font-weight="700" fill="#0F172A">$75,000</text>
  <rect x="24" y="116" width="168" height="58" rx="10" fill="#2563EB" opacity="0.05"/>
  <text x="40" y="136" font-family="system-ui" font-size="11" fill="#64748B">Total ROI</text>
  <text x="40" y="158" font-family="system-ui" font-size="20" font-weight="700" fill="#2563EB">50%</text>
  <rect x="208" y="116" width="168" height="58" rx="10" fill="#0D9488" opacity="0.05"/>
  <text x="224" y="136" font-family="system-ui" font-size="11" fill="#64748B">Annualized ROI</text>
  <text x="224" y="158" font-family="system-ui" font-size="20" font-weight="700" fill="#0D9488">8.4%</text>
  <rect x="24" y="188" width="352" height="96" rx="12" fill="white" stroke="#E2E8F0"/>
  <text x="40" y="210" font-family="system-ui" font-size="11" font-weight="600" fill="#0F172A">Breakdown</text>
  <rect x="40" y="220" width="320" height="1" fill="#E2E8F0"/>
  <text x="40" y="240" font-family="system-ui" font-size="10" fill="#64748B">Profit</text>
  <text x="200" y="240" font-family="system-ui" font-size="10" fill="#64748B">Years Held</text>
  <text x="300" y="240" font-family="system-ui" font-size="10" fill="#64748B">Annual Return</text>
  <text x="40" y="262" font-family="system-ui" font-size="14" font-weight="700" fill="#10B981">$25,000</text>
  <text x="200" y="262" font-family="system-ui" font-size="14" font-weight="700" fill="#0F172A">5 years</text>
  <text x="300" y="262" font-family="system-ui" font-size="14" font-weight="700" fill="#0F172A">8.4%</text>
</svg>