<svg xmlns="http://www.w3.org/2000/svg" viewBox="0 0 400 300" fill="none">
  <rect width="400" height="300" rx="16" fill="#F8FAFC"/>
  <text x="200" y="30" font-family="system-ui" font-size="14" font-weight="700" fill="#0F172A" text-anchor="middle">Stock Diversification</text>
  <rect x="24" y="46" width="168" height="100" rx="10" fill="white" stroke="#E2E8F0"/>
  <text x="40" y="68" font-family="system-ui" font-size="12" font-weight="600" fill="#0F172A">US Stocks</text>
  <rect x="40" y="78" width="140" height="1" fill="#E2E8F0"/>
  <rect x="40" y="88" width="100" height="6" rx="3" fill="#E2E8F0"/>
  <rect x="40" y="88" width="70" height="6" rx="3" fill="#2563EB"/>
  <text x="152" y="93" font-family="system-ui" font-size="9" fill="#2563EB">70%</text>
  <text x="40" y="116" font-family="system-ui" font-size="9" fill="#64748B">Large cap blend</text>
  <text x="40" y="132" font-family="system-ui" font-size="9" fill="#64748B">S&amp;P 500 index</text>
  <rect x="208" y="46" width="168" height="100" rx="10" fill="white" stroke="#E2E8F0"/>
  <text x="224" y="68" font-family="system-ui" font-size="12" font-weight="600" fill="#0F172A">Intl Stocks</text>
  <rect x="224" y="78" width="140" height="1" fill="#E2E8F0"/>
  <rect x="224" y="88" width="100" height="6" rx="3" fill="#E2E8F0"/>
  <rect x="224" y="88" width="20" height="6" rx="3" fill="#0D9488"/>
  <text x="336" y="93" font-family="system-ui" font-size="9" fill="#0D9488">20%</text>
  <text x="224" y="116" font-family="system-ui" font-size="9" fill="#64748B">Developed markets</text>
  <text x="224" y="132" font-family="system-ui" font-size="9" fill="#64748B">MSCI EAFE</text>
  <rect x="24" y="158" width="168" height="100" rx="10" fill="white" stroke="#E2E8F0"/>
  <text x="40" y="180" font-family="system-ui" font-size="12" font-weight="600" fill="#0F172A">Bonds</text>
  <rect x="40" y="190" width="140" height="1" fill="#E2E8F0"/>
  <rect x="40" y="200" width="100" height="6" rx="3" fill="#E2E8F0"/>
  <rect x="40" y="200" width="8" height="6" rx="3" fill="#F59E0B"/>
  <text x="152" y="205" font-family="system-ui" font-size="9" fill="#F59E0B">8%</text>
  <text x="40" y="228" font-family="system-ui" font-size="9" fill="#64748B">Treasury bonds</text>
  <text x="40" y="244" font-family="system-ui" font-size="9" fill="#64748B">Investment grade</text>
  <rect x="208" y="158" width="168" height="100" rx="10" fill="white" stroke="#E2E8F0"/>
  <text x="224" y="180" font-family="system-ui" font-size="12" font-weight="600" fill="#0F172A">Alternatives</text>
  <rect x="224" y="190" width="140" height="1" fill="#E2E8F0"/>
  <rect x="224" y="200" width="100" height="6" rx="3" fill="#E2E8F0"/>
  <rect x="224" y="200" width="2" height="6" rx="3" fill="#8B5CF6"/>
  <text x="336" y="205" font-family="system-ui" font-size="9" fill="#8B5CF6">2%</text>
  <text x="224" y="228" font-family="system-ui" font-size="9" fill="#64748B">REITs</text>
  <text x="224" y="244" font-family="system-ui" font-size="9" fill="#64748B">Commodities</text>
</svg>