<svg xmlns="http://www.w3.org/2000/svg" viewBox="0 0 400 300" fill="none">
  <rect width="400" height="300" rx="16" fill="#F8FAFC"/>
  <text x="200" y="30" font-family="system-ui" font-size="14" font-weight="700" fill="#0F172A" text-anchor="middle">Pension Growth</text>
  <rect x="24" y="48" width="352" height="140" rx="12" fill="white" stroke="#E2E8F0"/>
  <line x1="50" y1="55" x2="50" y2="165" stroke="#E2E8F0" stroke-width="1"/>
  <line x1="50" y1="165" x2="350" y2="165" stroke="#E2E8F0" stroke-width="1"/>
  <text x="40" y="168" font-family="system-ui" font-size="8" fill="#94A3B8">$0</text>
  <text x="90" y="168" font-family="system-ui" font-size="8" fill="#94A3B8">10yr</text>
  <text x="150" y="168" font-family="system-ui" font-size="8" fill="#94A3B8">20yr</text>
  <text x="220" y="168" font-family="system-ui" font-size="8" fill="#94A3B8">30yr</text>
  <text x="290" y="168" font-family="system-ui" font-size="8" fill="#94A3B8">40yr</text>
  <text x="340" y="168" font-family="system-ui" font-size="8" fill="#94A3B8">50yr</text>
  <rect x="55" y="140" width="20" height="25" rx="3" fill="#2563EB" opacity="0.4"/>
  <rect x="95" y="120" width="20" height="45" rx="3" fill="#2563EB" opacity="0.5"/>
  <rect x="135" y="95" width="20" height="70" rx="3" fill="#2563EB" opacity="0.6"/>
  <rect x="175" y="65" width="20" height="100" rx="3" fill="#2563EB" opacity="0.7"/>
  <rect x="215" y="45" width="20" height="120" rx="3" fill="#2563EB" opacity="0.8"/>
  <rect x="255" y="35" width="20" height="130" rx="3" fill="#2563EB"/>
  <rect x="295" y="30" width="20" height="135" rx="3" fill="#0D9488"/>
  <rect x="335" y="28" width="20" height="137" rx="3" fill="#F59E0B"/>
  <rect x="24" y="202" width="168" height="80" rx="10" fill="white" stroke="#E2E8F0"/>
  <text x="40" y="224" font-family="system-ui" font-size="11" fill="#64748B">Current Balance</text>
  <text x="40" y="246" font-family="system-ui" font-size="20" font-weight="700" fill="#0F172A">$125,000</text>
  <text x="40" y="268" font-family="system-ui" font-size="9" fill="#64748B">Vested: 100%</text>
  <rect x="208" y="202" width="168" height="80" rx="10" fill="white" stroke="#E2E8F0"/>
  <text x="224" y="224" font-family="system-ui" font-size="11" fill="#64748B">Projected at 65</text>
  <text x="224" y="246" font-family="system-ui" font-size="20" font-weight="700" fill="#2563EB">$890,000</text>
  <text x="224" y="268" font-family="system-ui" font-size="9" fill="#64748B">Includes employer match</text>
</svg>