<svg xmlns="http://www.w3.org/2000/svg" viewBox="0 0 400 300" fill="none">
  <rect width="400" height="300" rx="16" fill="#F8FAFC"/>
  <text x="200" y="30" font-family="system-ui" font-size="14" font-weight="700" fill="#0F172A" text-anchor="middle">Retirement Timeline</text>
  <rect x="24" y="48" width="352" height="120" rx="12" fill="white" stroke="#E2E8F0"/>
  <rect x="40" y="62" width="320" height="3" rx="1.5" fill="#E2E8F0"/>
  <rect x="40" y="62" width="200" height="3" rx="1.5" fill="#2563EB"/>
  <circle cx="80" cy="50" r="14" fill="#2563EB"/>
  <text x="76" y="54" font-family="system-ui" font-size="10" font-weight="700" fill="white">35</text>
  <text x="76" y="80" font-family="system-ui" font-size="9" fill="#64748B" text-anchor="middle">Now</text>
  <circle cx="200" cy="50" r="14" fill="#2563EB" opacity="0.4"/>
  <text x="196" y="54" font-family="system-ui" font-size="10" font-weight="700" fill="white">50</text>
  <text x="196" y="80" font-family="system-ui" font-size="9" fill="#64748B" text-anchor="middle">Mid</text>
  <circle cx="310" cy="50" r="14" fill="#0D9488"/>
  <text x="306" y="54" font-family="system-ui" font-size="10" font-weight="700" fill="white">65</text>
  <text x="306" y="80" font-family="system-ui" font-size="9" fill="#0D9488" text-anchor="middle">Retire</text>
  <text x="40" y="100" font-family="system-ui" font-size="10" fill="#64748B">Growth Phase</text>
  <text x="40" y="114" font-family="system-ui" font-size="10" fill="#64748B">Maximize contributions</text>
  <text x="40" y="128" font-family="system-ui" font-size="10" fill="#64748B">Aggressive allocation</text>
  <text x="220" y="100" font-family="system-ui" font-size="10" fill="#64748B">Conservation Phase</text>
  <text x="220" y="114" font-family="system-ui" font-size="10" fill="#64748B">Shift to bonds</text>
  <text x="220" y="128" font-family="system-ui" font-size="10" fill="#64748B">Reduce risk</text>
  <text x="310" y="100" font-family="system-ui" font-size="10" fill="#0D9488">Income Phase</text>
  <text x="310" y="114" font-family="system-ui" font-size="10" fill="#64748B">4% withdrawal</text>
  <text x="310" y="128" font-family="system-ui" font-size="10" fill="#64748B">Sustainable income</text>
  <rect x="24" y="180" width="168" height="100" rx="10" fill="white" stroke="#E2E8F0"/>
  <text x="40" y="204" font-family="system-ui" font-size="11" font-weight="600" fill="#0F172A">Needed at Retirement</text>
  <text x="40" y="228" font-family="system-ui" font-size="20" font-weight="700" fill="#0F172A">$1.2M</text>
  <text x="40" y="250" font-family="system-ui" font-size="10" fill="#64748B">80% of pre-retirement income</text>
  <text x="40" y="268" font-family="system-ui" font-size="10" fill="#64748B">Based on $60K/year spending</text>
  <rect x="208" y="180" width="168" height="100" rx="10" fill="white" stroke="#E2E8F0"/>
  <text x="224" y="204" font-family="system-ui" font-size="11" font-weight="600" fill="#0F172A">Social Security</text>
  <text x="224" y="228" font-family="system-ui" font-size="16" font-weight="700" fill="#0F172A">$1,950/mo</text>
  <text x="224" y="250" font-family="system-ui" font-size="10" fill="#64748B">Estimated benefit</text>
  <text x="224" y="268" font-family="system-ui" font-size="10" fill="#64748B">At full retirement age</text>
</svg>