<svg xmlns="http://www.w3.org/2000/svg" viewBox="0 0 400 300" fill="none">
  <rect width="400" height="300" rx="16" fill="#F8FAFC"/>
  <rect x="24" y="20" width="168" height="128" rx="14" fill="white" stroke="#E2E8F0"/>
  <circle cx="52" cy="50" r="12" fill="#2563EB" opacity="0.1"/>
  <circle cx="52" cy="50" r="5" fill="#2563EB"/>
  <text x="72" y="54" font-family="system-ui" font-size="13" font-weight="600" fill="#0F172A">Financial Plan</text>
  <rect x="36" y="72" width="144" height="1" fill="#E2E8F0"/>
  <rect x="36" y="84" width="120" height="6" rx="3" fill="#E2E8F0"/>
  <rect x="36" y="84" width="72" height="6" rx="3" fill="#2563EB"/>
  <text x="164" y="89" font-family="system-ui" font-size="9" fill="#2563EB">60%</text>
  <rect x="36" y="98" width="120" height="6" rx="3" fill="#E2E8F0"/>
  <rect x="36" y="98" width="48" height="6" rx="3" fill="#0D9488"/>
  <text x="164" y="103" font-family="system-ui" font-size="9" fill="#0D9488">40%</text>
  <rect x="36" y="112" width="120" height="6" rx="3" fill="#E2E8F0"/>
  <rect x="36" y="112" width="96" height="6" rx="3" fill="#F59E0B"/>
  <text x="164" y="117" font-family="system-ui" font-size="9" fill="#F59E0B">80%</text>
  <text x="36" y="136" font-family="system-ui" font-size="9" fill="#64748B">Goals progress</text>
  <rect x="208" y="20" width="168" height="128" rx="14" fill="white" stroke="#E2E8F0"/>
  <circle cx="236" cy="50" r="12" fill="#0D9488" opacity="0.1"/>
  <circle cx="236" cy="50" r="5" fill="#0D9488"/>
  <text x="256" y="54" font-family="system-ui" font-size="13" font-weight="600" fill="#0F172A">Budget Allocation</text>
  <rect x="221" y="72" width="142" height="1" fill="#E2E8F0"/>
  <rect x="228" y="84" width="12" height="48" rx="3" fill="#2563EB"/>
  <rect x="246" y="94" width="12" height="38" rx="3" fill="#0D9488"/>
  <rect x="264" y="78" width="12" height="54" rx="3" fill="#F59E0B"/>
  <rect x="282" y="102" width="12" height="30" rx="3" fill="#8B5CF6"/>
  <rect x="300" y="88" width="12" height="44" rx="3" fill="#F43F5E"/>
  <text x="228" y="140" font-family="system-ui" font-size="8" fill="#94A3B8">H</text>
  <text x="246" y="140" font-family="system-ui" font-size="8" fill="#94A3B8">S</text>
  <text x="264" y="140" font-family="system-ui" font-size="8" fill="#94A3B8">F</text>
  <text x="282" y="140" font-family="system-ui" font-size="8" fill="#94A3B8">T</text>
  <text x="300" y="140" font-family="system-ui" font-size="8" fill="#94A3B8">E</text>
  <rect x="24" y="162" width="352" height="56" rx="12" fill="white" stroke="#E2E8F0"/>
  <circle cx="52" cy="190" r="8" fill="#F59E0B" opacity="0.1"/>
  <text x="48" y="193" font-family="system-ui" font-size="10" fill="#F59E0B">&#9733;</text>
  <text x="70" y="188" font-family="system-ui" font-size="12" font-weight="600" fill="#0F172A">Investment Tip</text>
  <text x="70" y="204" font-family="system-ui" font-size="10" fill="#64748B">Start early to maximize compound growth over time</text>
  <rect x="24" y="232" width="168" height="48" rx="10" fill="#2563EB" opacity="0.05"/>
  <rect x="36" y="242" width="48" height="28" rx="8" fill="white" stroke="#2563EB" stroke-width="1.5"/>
  <text x="40" y="260" font-family="system-ui" font-size="11" font-weight="600" fill="#2563EB">Goal</text>
  <text x="94" y="254" font-family="system-ui" font-size="11" fill="#64748B">Set a target</text>
  <text x="94" y="268" font-family="system-ui" font-size="10" font-weight="600" fill="#0F172A">$25,000</text>
  <rect x="208" y="232" width="168" height="48" rx="10" fill="#0D9488" opacity="0.05"/>
  <rect x="220" y="242" width="48" height="28" rx="8" fill="white" stroke="#0D9488" stroke-width="1.5"/>
  <text x="224" y="260" font-family="system-ui" font-size="11" font-weight="600" fill="#0D9488">Plan</text>
  <text x="278" y="254" font-family="system-ui" font-size="11" fill="#64748B">Monthly save</text>
  <text x="278" y="268" font-family="system-ui" font-size="10" font-weight="600" fill="#0F172A">$420/mo</text>
</svg>