<svg xmlns="http://www.w3.org/2000/svg" viewBox="0 0 400 300" fill="none">
  <rect width="400" height="300" rx="16" fill="#F8FAFC"/>
  <rect x="20" y="16" width="360" height="40" rx="10" fill="white" stroke="#E2E8F0"/>
  <circle cx="40" cy="36" r="10" fill="#2563EB" opacity="0.1"/>
  <circle cx="40" cy="36" r="4" fill="#2563EB"/>
  <text x="58" y="40" font-family="system-ui" font-size="13" font-weight="600" fill="#0F172A">Finance Dashboard</text>
  <rect x="310" y="28" width="28" height="16" rx="4" fill="#2563EB"/>
  <text x="316" y="39" font-family="system-ui" font-size="7" font-weight="600" fill="white">PRO</text>
  <rect x="20" y="68" width="235" height="140" rx="12" fill="white" stroke="#E2E8F0"/>
  <text x="36" y="92" font-family="system-ui" font-size="12" font-weight="600" fill="#0F172A">Monthly Overview</text>
  <rect x="36" y="108" width="8" height="60" rx="2" fill="#2563EB" opacity="0.3"/>
  <rect x="54" y="125" width="8" height="43" rx="2" fill="#2563EB" opacity="0.5"/>
  <rect x="72" y="100" width="8" height="68" rx="2" fill="#2563EB" opacity="0.7"/>
  <rect x="90" y="115" width="8" height="53" rx="2" fill="#2563EB"/>
  <rect x="108" y="90" width="8" height="78" rx="2" fill="#2563EB" opacity="0.4"/>
  <rect x="126" y="110" width="8" height="58" rx="2" fill="#2563EB" opacity="0.6"/>
  <rect x="144" y="80" width="8" height="88" rx="2" fill="#0D9488"/>
  <rect x="162" y="105" width="8" height="63" rx="2" fill="#0D9488" opacity="0.7"/>
  <rect x="180" y="95" width="8" height="73" rx="2" fill="#0D9488" opacity="0.5"/>
  <rect x="198" y="120" width="8" height="48" rx="2" fill="#0D9488" opacity="0.3"/>
  <line x1="30" y1="180" x2="220" y2="180" stroke="#E2E8F0" stroke-width="1"/>
  <text x="36" y="196" font-family="system-ui" font-size="8" fill="#94A3B8">Jan</text>
  <text x="56" y="196" font-family="system-ui" font-size="8" fill="#94A3B8">Feb</text>
  <text x="74" y="196" font-family="system-ui" font-size="8" fill="#94A3B8">Mar</text>
  <text x="92" y="196" font-family="system-ui" font-size="8" fill="#94A3B8">Apr</text>
  <text x="110" y="196" font-family="system-ui" font-size="8" fill="#94A3B8">May</text>
  <text x="127" y="196" font-family="system-ui" font-size="8" fill="#94A3B8">Jun</text>
  <text x="145" y="196" font-family="system-ui" font-size="8" fill="#94A3B8">Jul</text>
  <rect x="270" y="68" width="110" height="140" rx="12" fill="white" stroke="#E2E8F0"/>
  <text x="284" y="92" font-family="system-ui" font-size="12" font-weight="600" fill="#0F172A">Summary</text>
  <rect x="284" y="104" width="82" height="1" fill="#E2E8F0"/>
  <text x="284" y="124" font-family="system-ui" font-size="10" fill="#64748B">Income</text>
  <text x="284" y="140" font-family="system-ui" font-size="14" font-weight="700" fill="#0F172A">$6,240</text>
  <text x="284" y="158" font-family="system-ui" font-size="10" fill="#64748B">Expenses</text>
  <text x="284" y="174" font-family="system-ui" font-size="14" font-weight="700" fill="#0F172A">$4,180</text>
  <text x="284" y="192" font-family="system-ui" font-size="10" fill="#64748B">Savings</text>
  <text x="284" y="208" font-family="system-ui" font-size="14" font-weight="700" fill="#10B981">$2,060</text>
  <rect x="20" y="220" width="360" height="64" rx="12" fill="white" stroke="#E2E8F0"/>
  <circle cx="48" cy="252" r="14" fill="#2563EB" opacity="0.1"/>
  <path d="M42 252 L48 246 L54 258" stroke="#2563EB" stroke-width="2" stroke-linecap="round" stroke-linejoin="round"/>
  <text x="72" y="248" font-family="system-ui" font-size="12" font-weight="600" fill="#0F172A">All calculations run locally</text>
  <text x="72" y="264" font-family="system-ui" font-size="10" fill="#64748B">Your financial data never leaves your device</text>
  <rect x="300" y="236" width="64" height="28" rx="8" fill="#2563EB"/>
  <text x="310" y="254" font-family="system-ui" font-size="11" font-weight="600" fill="white">Start</text>
</svg>