<svg xmlns="http://www.w3.org/2000/svg" viewBox="0 0 600 400" fill="none">
  <defs>
    <linearGradient id="heroBg" x1="0" y1="0" x2="1" y2="1">
      <stop offset="0%" stop-color="#1E40AF" stop-opacity="0.08"/>
      <stop offset="100%" stop-color="#0D9488" stop-opacity="0.04"/>
    </linearGradient>
    <linearGradient id="chartGrad" x1="0" y1="1" x2="0" y2="0">
      <stop offset="0%" stop-color="#2563EB" stop-opacity="0.3"/>
      <stop offset="100%" stop-color="#2563EB" stop-opacity="0.05"/>
    </linearGradient>
  </defs>
  <rect width="600" height="400" rx="24" fill="url(#heroBg)"/>
  <rect x="60" y="30" width="180" height="120" rx="16" fill="white" stroke="#E2E8F0"/>
  <rect x="68" y="42" width="36" height="24" rx="6" fill="#2563EB"/>
  <rect x="112" y="48" width="48" height="4" rx="2" fill="#2563EB" opacity="0.3"/>
  <rect x="112" y="56" width="36" height="4" rx="2" fill="#94A3B8" opacity="0.5"/>
  <rect x="68" y="74" width="164" height="2" rx="1" fill="#E2E8F0"/>
  <text x="72" y="96" font-family="system-ui" font-size="11" fill="#64748B">Portfolio Value</text>
  <text x="72" y="116" font-family="system-ui" font-size="18" font-weight="700" fill="#0F172A">$284,500</text>
  <text x="72" y="132" font-family="system-ui" font-size="10" fill="#10B981">&#x2191; 12.4% this year</text>
  <circle cx="540" cy="60" r="24" fill="#2563EB" opacity="0.1"/>
  <circle cx="540" cy="60" r="12" fill="#2563EB" opacity="0.2"/>
  <circle cx="540" cy="60" r="4" fill="#2563EB"/>
  <rect x="360" y="170" width="180" height="100" rx="12" fill="white" stroke="#E2E8F0"/>
  <rect x="372" y="182" width="60" height="28" rx="6" fill="#0D9488" opacity="0.1"/>
  <circle cx="390" cy="196" r="6" fill="#0D9488"/>
  <text x="406" y="200" font-family="system-ui" font-size="11" font-weight="600" fill="#0D9488">Savings Goal</text>
  <text x="372" y="228" font-family="system-ui" font-size="14" font-weight="700" fill="#0F172A">$50,000</text>
  <text x="372" y="244" font-family="system-ui" font-size="10" fill="#64748B">78% complete</text>
  <rect x="372" y="254" width="156" height="6" rx="3" fill="#E2E8F0"/>
  <rect x="372" y="254" width="122" height="6" rx="3" fill="#0D9488"/>
  <path d="M60 290 L90 230 L120 260 L150 200 L180 220 L210 160 L240 180 L270 130 L300 150" stroke="#2563EB" stroke-width="3" stroke-linecap="round" stroke-linejoin="round" opacity="0.6"/>
  <path d="M60 290 L90 230 L120 260 L150 200 L180 220 L210 160 L240 180 L270 130 L300 150" fill="url(#chartGrad)" clip-path="polygon(0 290, 60 290, 90 230, 120 260, 150 200, 180 220, 210 160, 240 180, 270 130, 300 150, 300 290, 0 290)"/>
  <circle cx="210" cy="160" r="5" fill="#2563EB" stroke="white" stroke-width="2"/>
  <circle cx="270" cy="130" r="5" fill="#2563EB" stroke="white" stroke-width="2"/>
  <circle cx="120" cy="260" r="3" fill="#2563EB" opacity="0.5"/>
  <circle cx="180" cy="220" r="3" fill="#2563EB" opacity="0.5"/>
  <rect x="320" y="30" width="100" height="80" rx="12" fill="white" stroke="#E2E8F0"/>
  <rect x="332" y="42" width="76" height="2" rx="1" fill="#E2E8F0"/>
  <rect x="332" y="50" width="60" height="2" rx="1" fill="#E2E8F0"/>
  <rect x="332" y="58" width="70" height="2" rx="1" fill="#E2E8F0"/>
  <rect x="332" y="74" width="40" height="6" rx="3" fill="#2563EB"/>
  <text x="332" y="98" font-family="system-ui" font-size="9" fill="#64748B">Calculator</text>
  <g transform="translate(60, 310)">
    <rect width="114" height="36" rx="10" fill="#2563EB"/>
    <text x="20" y="23" font-family="system-ui" font-size="13" font-weight="600" fill="white">Try it free</text>
  </g>
  <g transform="translate(190, 310)">
    <rect width="114" height="36" rx="10" fill="white" stroke="#E2E8F0"/>
    <text x="20" y="23" font-family="system-ui" font-size="13" font-weight="600" fill="#2563EB">Learn more</text>
  </g>
  <path d="M440 310 L460 290 L480 310" stroke="#2563EB" stroke-width="2" stroke-linecap="round" stroke-linejoin="round" fill="none" opacity="0.3"/>
  <path d="M460 290 L460 330" stroke="#2563EB" stroke-width="2" stroke-linecap="round" fill="none" opacity="0.3"/>
  <line x1="420" y1="330" x2="500" y2="330" stroke="#E2E8F0" stroke-width="1"/>
</svg>