<svg xmlns="http://www.w3.org/2000/svg" viewBox="0 0 400 300" fill="none">
  <rect width="400" height="300" rx="16" fill="#F8FAFC"/>
  <rect x="130" y="24" width="140" height="90" rx="12" fill="#2563EB" opacity="0.06"/>
  <rect x="145" y="36" width="110" height="66" rx="6" fill="white" stroke="#2563EB" stroke-width="1.5" stroke-opacity="0.3"/>
  <path d="M155 85 L170 68 L185 78 L200 58 L215 68 L230 48 L245 55" stroke="#2563EB" stroke-width="2.5" stroke-linecap="round" stroke-linejoin="round" fill="none"/>
  <circle cx="200" cy="58" r="3" fill="#2563EB"/>
  <circle cx="230" cy="48" r="3" fill="#10B981"/>
  <text x="200" y="130" font-family="system-ui" font-size="13" font-weight="600" fill="#0F172A" text-anchor="middle">Business Growth</text>
  <text x="200" y="146" font-family="system-ui" font-size="10" fill="#64748B" text-anchor="middle">Track your company's trajectory</text>
  <rect x="24" y="164" width="168" height="56" rx="10" fill="white" stroke="#E2E8F0"/>
  <text x="40" y="186" font-family="system-ui" font-size="11" fill="#64748B">Revenue</text>
  <text x="40" y="206" font-family="system-ui" font-size="18" font-weight="700" fill="#10B981">$1.2M</text>
  <rect x="208" y="164" width="168" height="56" rx="10" fill="white" stroke="#E2E8F0"/>
  <text x="224" y="186" font-family="system-ui" font-size="11" fill="#64748B">Profit Margin</text>
  <text x="224" y="206" font-family="system-ui" font-size="18" font-weight="700" fill="#0F172A">18%</text>
  <rect x="24" y="232" width="168" height="52" rx="10" fill="white" stroke="#E2E8F0"/>
  <text x="40" y="254" font-family="system-ui" font-size="10" font-weight="600" fill="#0F172A">YoY Growth</text>
  <text x="40" y="270" font-family="system-ui" font-size="9" fill="#10B981">&#x2191; 24%</text>
  <rect x="208" y="232" width="168" height="52" rx="10" fill="white" stroke="#E2E8F0"/>
  <text x="224" y="254" font-family="system-ui" font-size="10" font-weight="600" fill="#0F172A">Runway</text>
  <text x="224" y="270" font-family="system-ui" font-size="9" fill="#0F172A">14 months</text>
</svg>