<svg xmlns="http://www.w3.org/2000/svg" viewBox="0 0 400 300" fill="none">
  <rect width="400" height="300" rx="16" fill="#F8FAFC"/>
  <text x="200" y="30" font-family="system-ui" font-size="14" font-weight="700" fill="#0F172A" text-anchor="middle">Financial Reports</text>
  <rect x="24" y="48" width="168" height="126" rx="10" fill="white" stroke="#E2E8F0"/>
  <rect x="36" y="60" width="144" height="8" rx="3" fill="#2563EB" opacity="0.1"/>
  <rect x="36" y="74" width="120" height="4" rx="2" fill="#94A3B8" opacity="0.5"/>
  <rect x="36" y="84" width="130" height="4" rx="2" fill="#94A3B8" opacity="0.5"/>
  <rect x="36" y="94" width="140" height="4" rx="2" fill="#94A3B8" opacity="0.5"/>
  <rect x="36" y="108" width="60" height="24" rx="4" fill="#2563EB" opacity="0.1"/>
  <text x="66" y="124" font-family="system-ui" font-size="9" font-weight="600" fill="#2563EB" text-anchor="middle">Q1 Report</text>
  <rect x="36" y="142" width="144" height="1" fill="#E2E8F0"/>
  <text x="36" y="160" font-family="system-ui" font-size="9" fill="#64748B">Revenue: +24% YoY</text>
  <rect x="208" y="48" width="168" height="126" rx="10" fill="white" stroke="#E2E8F0"/>
  <rect x="220" y="60" width="144" height="8" rx="3" fill="#0D9488" opacity="0.1"/>
  <rect x="220" y="74" width="120" height="4" rx="2" fill="#94A3B8" opacity="0.5"/>
  <rect x="220" y="84" width="130" height="4" rx="2" fill="#94A3B8" opacity="0.5"/>
  <rect x="220" y="94" width="140" height="4" rx="2" fill="#94A3B8" opacity="0.5"/>
  <rect x="220" y="108" width="60" height="24" rx="4" fill="#0D9488" opacity="0.1"/>
  <text x="250" y="124" font-family="system-ui" font-size="9" font-weight="600" fill="#0D9488" text-anchor="middle">Balance</text>
  <rect x="220" y="142" width="144" height="1" fill="#E2E8F0"/>
  <text x="220" y="160" font-family="system-ui" font-size="9" fill="#64748B">Assets: $2.4M</text>
  <rect x="24" y="186" width="352" height="100" rx="12" fill="white" stroke="#E2E8F0"/>
  <text x="40" y="208" font-family="system-ui" font-size="11" font-weight="600" fill="#0F172A">Key Financial Metrics</text>
  <rect x="40" y="218" width="320" height="1" fill="#E2E8F0"/>
  <text x="40" y="236" font-family="system-ui" font-size="10" fill="#64748B">Gross Margin</text>
  <text x="140" y="236" font-family="system-ui" font-size="10" font-weight="600" fill="#0F172A">62%</text>
  <text x="200" y="236" font-family="system-ui" font-size="10" fill="#64748B">Net Margin</text>
  <text x="280" y="236" font-family="system-ui" font-size="10" font-weight="600" fill="#0F172A">18%</text>
  <text x="40" y="258" font-family="system-ui" font-size="10" fill="#64748B">Current Ratio</text>
  <text x="140" y="258" font-family="system-ui" font-size="10" font-weight="600" fill="#0F172A">2.4</text>
  <text x="200" y="258" font-family="system-ui" font-size="10" fill="#64748B">Debt-to-Equity</text>
  <text x="280" y="258" font-family="system-ui" font-size="10" font-weight="600" fill="#0F172A">0.8</text>
  <text x="40" y="278" font-family="system-ui" font-size="9" fill="#64748B">Based on latest quarterly filing</text>
</svg>