<svg xmlns="http://www.w3.org/2000/svg" viewBox="0 0 400 300" fill="none">
  <rect width="400" height="300" rx="16" fill="#F8FAFC"/>
  <text x="200" y="32" font-family="system-ui" font-size="14" font-weight="700" fill="#0F172A" text-anchor="middle">Amortization Timeline</text>
  <rect x="24" y="50" width="352" height="36" rx="10" fill="white" stroke="#E2E8F0"/>
  <text x="40" y="73" font-family="system-ui" font-size="11" font-weight="600" fill="#0F172A">30-Year Loan</text>
  <circle cx="80" cy="82" r="6" fill="#2563EB"/>
  <text x="92" y="86" font-family="system-ui" font-size="9" fill="#64748B">$320K balance</text>
  <rect x="220" y="56" width="60" height="24" rx="6" fill="#2563EB" opacity="0.1"/>
  <text x="250" y="72" font-family="system-ui" font-size="10" font-weight="600" fill="#2563EB" text-anchor="middle">6.5% APR</text>
  <rect x="296" y="56" width="64" height="24" rx="6" fill="#0D9488" opacity="0.1"/>
  <text x="328" y="72" font-family="system-ui" font-size="10" font-weight="600" fill="#0D9488" text-anchor="middle">$1,864/mo</text>
  <rect x="24" y="100" width="352" height="180" rx="12" fill="white" stroke="#E2E8F0"/>
  <rect x="40" y="112" width="100" height="16" rx="4" fill="#2563EB" opacity="0.1"/>
  <text x="90" y="124" font-family="system-ui" font-size="9" font-weight="600" fill="#2563EB" text-anchor="middle">Balance</text>
  <rect x="40" y="136" width="320" height="8" rx="4" fill="#E2E8F0"/>
  <rect x="40" y="136" width="300" height="8" rx="4" fill="#2563EB"/>
  <text x="40" y="162" font-family="system-ui" font-size="10" fill="#64748B">Year 5: $295,000 balance</text>
  <rect x="40" y="174" width="320" height="8" rx="4" fill="#E2E8F0"/>
  <rect x="40" y="174" width="220" height="8" rx="4" fill="#2563EB" opacity="0.7"/>
  <text x="40" y="200" font-family="system-ui" font-size="10" fill="#64748B">Year 15: $210,000 balance</text>
  <rect x="40" y="212" width="320" height="8" rx="4" fill="#E2E8F0"/>
  <rect x="40" y="212" width="130" height="8" rx="4" fill="#2563EB" opacity="0.4"/>
  <text x="40" y="238" font-family="system-ui" font-size="10" fill="#64748B">Year 25: $95,000 balance</text>
  <rect x="40" y="250" width="320" height="8" rx="4" fill="#E2E8F0"/>
  <rect x="40" y="250" width="10" height="8" rx="4" fill="#0D9488"/>
  <text x="40" y="274" font-family="system-ui" font-size="10" fill="#64748B">Year 30: $0 paid off!</text>
</svg>