<svg xmlns="http://www.w3.org/2000/svg" viewBox="0 0 400 300" fill="none">
  <rect width="400" height="300" rx="16" fill="#F8FAFC"/>
  <rect x="140" y="30" width="120" height="100" rx="8" fill="#2563EB" opacity="0.08"/>
  <rect x="155" y="40" width="90" height="12" rx="4" fill="#2563EB" opacity="0.15"/>
  <polygon points="200,55 165,85 200,75 235,85" fill="#2563EB" opacity="0.2"/>
  <rect x="165" y="90" width="70" height="30" rx="4" fill="#2563EB" opacity="0.1"/>
  <rect x="175" y="98" width="20" height="4" rx="2" fill="#2563EB"/>
  <rect x="175" y="106" width="30" height="4" rx="2" fill="#2563EB" opacity="0.4"/>
  <rect x="202" y="106" width="20" height="4" rx="2" fill="#2563EB"/>
  <rect x="24" y="150" width="168" height="130" rx="12" fill="white" stroke="#E2E8F0"/>
  <text x="40" y="174" font-family="system-ui" font-size="12" font-weight="600" fill="#0F172A">Monthly Payment</text>
  <text x="40" y="198" font-family="system-ui" font-size="24" font-weight="700" fill="#2563EB">$1,864</text>
  <text x="40" y="214" font-family="system-ui" font-size="10" fill="#64748B">Principal &amp; Interest</text>
  <rect x="40" y="224" width="140" height="1" fill="#E2E8F0"/>
  <text x="40" y="242" font-family="system-ui" font-size="10" fill="#64748B">Loan Amount</text>
  <text x="140" y="242" font-family="system-ui" font-size="10" font-weight="600" fill="#0F172A" text-anchor="end">$320,000</text>
  <text x="40" y="258" font-family="system-ui" font-size="10" fill="#64748B">Interest Rate</text>
  <text x="140" y="258" font-family="system-ui" font-size="10" font-weight="600" fill="#0F172A" text-anchor="end">6.5%</text>
  <text x="40" y="274" font-family="system-ui" font-size="10" fill="#64748B">Term</text>
  <text x="140" y="274" font-family="system-ui" font-size="10" font-weight="600" fill="#0F172A" text-anchor="end">30 years</text>
  <rect x="208" y="150" width="168" height="130" rx="12" fill="white" stroke="#E2E8F0"/>
  <text x="224" y="174" font-family="system-ui" font-size="12" font-weight="600" fill="#0F172A">Amortization</text>
  <rect x="224" y="188" width="80" height="40" rx="4" fill="#2563EB" opacity="0.1"/>
  <text x="264" y="212" font-family="system-ui" font-size="10" font-weight="600" fill="#2563EB" text-anchor="middle">Year 1</text>
  <rect x="224" y="188" width="24" height="40" rx="4" fill="#2563EB"/>
  <text x="236" y="212" font-family="system-ui" font-size="8" font-weight="600" fill="white" text-anchor="middle">$5K</text>
  <rect x="312" y="200" width="52" height="28" rx="4" fill="#2563EB" opacity="0.1"/>
  <text x="338" y="218" font-family="system-ui" font-size="9" font-weight="600" fill="#2563EB" text-anchor="middle">Year 30</text>
  <rect x="312" y="188" width="52" height="40" rx="4" fill="#0D9488"/>
  <text x="338" y="212" font-family="system-ui" font-size="8" font-weight="600" fill="white" text-anchor="middle">$320K</text>
  <rect x="224" y="236" width="140" height="1" fill="#E2E8F0"/>
  <text x="224" y="252" font-family="system-ui" font-size="10" fill="#64748B">Total Interest</text>
  <text x="224" y="268" font-family="system-ui" font-size="16" font-weight="700" fill="#F43F5E">$408,888</text>
</svg>