<svg xmlns="http://www.w3.org/2000/svg" viewBox="0 0 400 300" fill="none">
  <rect width="400" height="300" rx="16" fill="#F8FAFC"/>
  <text x="200" y="36" font-family="system-ui" font-size="14" font-weight="700" fill="#0F172A" text-anchor="middle">Payment Breakdown</text>
  <circle cx="160" cy="140" r="90" fill="#2563EB" opacity="0.06"/>
  <circle cx="160" cy="140" r="72" fill="none" stroke="#2563EB" stroke-width="28" stroke-opacity="0.15" stroke-dasharray="180 0"/>
  <circle cx="160" cy="140" r="72" fill="none" stroke="#0D9488" stroke-width="28" stroke-opacity="0.15" stroke-dasharray="120 236" stroke-dashoffset="-60"/>
  <circle cx="160" cy="140" r="72" fill="none" stroke="#F59E0B" stroke-width="28" stroke-opacity="0.15" stroke-dasharray="60 296" stroke-dashoffset="-120"/>
  <circle cx="160" cy="140" r="72" fill="none" stroke="#F43F5E" stroke-width="28" stroke-opacity="0.15" stroke-dasharray="30 326" stroke-dashoffset="-150"/>
  <text x="160" y="138" font-family="system-ui" font-size="24" font-weight="700" fill="#0F172A" text-anchor="middle">$1,864</text>
  <text x="160" y="154" font-family="system-ui" font-size="9" fill="#64748B" text-anchor="middle">per month</text>
  <rect x="270" y="48" width="110" height="200" rx="12" fill="white" stroke="#E2E8F0"/>
  <rect x="284" y="62" width="82" height="1" fill="#E2E8F0"/>
  <rect x="284" y="72" width="10" height="10" rx="2" fill="#2563EB"/>
  <text x="302" y="81" font-family="system-ui" font-size="11" fill="#0F172A">Principal</text>
  <text x="360" y="81" font-family="system-ui" font-size="11" font-weight="600" fill="#0F172A" text-anchor="end">$892</text>
  <rect x="284" y="96" width="10" height="10" rx="2" fill="#0D9488"/>
  <text x="302" y="105" font-family="system-ui" font-size="11" fill="#0F172A">Interest</text>
  <text x="360" y="105" font-family="system-ui" font-size="11" font-weight="600" fill="#0F172A" text-anchor="end">$598</text>
  <rect x="284" y="120" width="10" height="10" rx="2" fill="#F59E0B"/>
  <text x="302" y="129" font-family="system-ui" font-size="11" fill="#0F172A">Taxes</text>
  <text x="360" y="129" font-family="system-ui" font-size="11" font-weight="600" fill="#0F172A" text-anchor="end">$224</text>
  <rect x="284" y="144" width="10" height="10" rx="2" fill="#F43F5E"/>
  <text x="302" y="153" font-family="system-ui" font-size="11" fill="#0F172A">Insurance</text>
  <text x="360" y="153" font-family="system-ui" font-size="11" font-weight="600" fill="#0F172A" text-anchor="end">$150</text>
  <rect x="284" y="170" width="82" height="1" fill="#E2E8F0"/>
  <text x="284" y="190" font-family="system-ui" font-size="11" fill="#64748B">Total Payment</text>
  <text x="360" y="190" font-family="system-ui" font-size="14" font-weight="700" fill="#0F172A" text-anchor="end">$1,864</text>
  <rect x="284" y="220" width="82" height="1" fill="#E2E8F0"/>
  <text x="284" y="238" font-family="system-ui" font-size="9" fill="#64748B">PITI breakdown</text>
</svg>