<svg xmlns="http://www.w3.org/2000/svg" viewBox="0 0 400 300" fill="none">
  <rect width="400" height="300" rx="16" fill="#F8FAFC"/>
  <text x="200" y="28" font-family="system-ui" font-size="14" font-weight="700" fill="#0F172A" text-anchor="middle">Mortgage Process</text>
  <rect x="24" y="44" width="168" height="56" rx="10" fill="white" stroke="#2563EB" stroke-width="1.5"/>
  <circle cx="52" cy="72" r="14" fill="#2563EB"/>
  <text x="49" y="76" font-family="system-ui" font-size="10" font-weight="700" fill="white">1</text>
  <text x="76" y="68" font-family="system-ui" font-size="11" font-weight="600" fill="#0F172A">Pre-Approval</text>
  <text x="76" y="84" font-family="system-ui" font-size="9" fill="#64748B">Check your budget</text>
  <rect x="208" y="44" width="168" height="56" rx="10" fill="white" stroke="#E2E8F0"/>
  <circle cx="236" cy="72" r="14" fill="#E2E8F0"/>
  <text x="233" y="76" font-family="system-ui" font-size="10" font-weight="700" fill="#94A3B8">2</text>
  <text x="260" y="68" font-family="system-ui" font-size="11" font-weight="600" fill="#0F172A">House Hunting</text>
  <text x="260" y="84" font-family="system-ui" font-size="9" fill="#64748B">Find your home</text>
  <rect x="24" y="112" width="168" height="56" rx="10" fill="white" stroke="#E2E8F0"/>
  <circle cx="52" cy="140" r="14" fill="#E2E8F0"/>
  <text x="49" y="144" font-family="system-ui" font-size="10" font-weight="700" fill="#94A3B8">3</text>
  <text x="76" y="136" font-family="system-ui" font-size="11" font-weight="600" fill="#0F172A">Loan Application</text>
  <text x="76" y="152" font-family="system-ui" font-size="9" fill="#64748B">Submit documents</text>
  <rect x="208" y="112" width="168" height="56" rx="10" fill="white" stroke="#E2E8F0"/>
  <circle cx="236" cy="140" r="14" fill="#E2E8F0"/>
  <text x="233" y="144" font-family="system-ui" font-size="10" font-weight="700" fill="#94A3B8">4</text>
  <text x="260" y="136" font-family="system-ui" font-size="11" font-weight="600" fill="#0F172A">Underwriting</text>
  <text x="260" y="152" font-family="system-ui" font-size="9" fill="#64748B">Verification</text>
  <rect x="24" y="180" width="168" height="56" rx="10" fill="white" stroke="#E2E8F0"/>
  <circle cx="52" cy="208" r="14" fill="#E2E8F0"/>
  <text x="49" y="212" font-family="system-ui" font-size="10" font-weight="700" fill="#94A3B8">5</text>
  <text x="76" y="204" font-family="system-ui" font-size="11" font-weight="600" fill="#0F172A">Closing</text>
  <text x="76" y="220" font-family="system-ui" font-size="9" fill="#64748B">Sign &amp; finalize</text>
  <rect x="208" y="180" width="168" height="56" rx="10" fill="white" stroke="#0D9488" stroke-width="1.5"/>
  <circle cx="236" cy="208" r="14" fill="#0D9488"/>
  <text x="233" y="212" font-family="system-ui" font-size="10" font-weight="700" fill="white">6</text>
  <text x="260" y="204" font-family="system-ui" font-size="11" font-weight="600" fill="#0F172A">Home Ownership</text>
  <text x="260" y="220" font-family="system-ui" font-size="9" fill="#64748B">Move in!</text>
  <line x1="192" y1="72" x2="208" y2="72" stroke="#94A3B8" stroke-width="1.5" stroke-dasharray="4 2"/>
  <line x1="192" y1="140" x2="208" y2="140" stroke="#94A3B8" stroke-width="1.5" stroke-dasharray="4 2"/>
  <line x1="24" y1="100" x2="24" y2="112" stroke="#94A3B8" stroke-width="1.5" stroke-dasharray="4 2"/>
  <line x1="208" y1="100" x2="208" y2="112" stroke="#94A3B8" stroke-width="1.5" stroke-dasharray="4 2"/>
  <line x1="24" y1="168" x2="24" y2="180" stroke="#94A3B8" stroke-width="1.5" stroke-dasharray="4 2"/>
  <line x1="208" y1="168" x2="208" y2="180" stroke="#94A3B8" stroke-width="1.5" stroke-dasharray="4 2"/>
</svg>