<svg xmlns="http://www.w3.org/2000/svg" viewBox="0 0 400 300" fill="none">
  <rect width="400" height="300" rx="16" fill="#F8FAFC"/>
  <rect x="24" y="24" width="168" height="130" rx="12" fill="white" stroke="#E2E8F0"/>
  <rect x="100" y="40" width="28" height="28" rx="8" fill="#F59E0B" opacity="0.15"/>
  <text x="108" y="59" font-family="system-ui" font-size="14" font-weight="700" fill="#92400E">!</text>
  <text x="60" y="84" font-family="system-ui" font-size="13" font-weight="600" fill="#0F172A" text-anchor="middle">Emergency Fund</text>
  <text x="60" y="100" font-family="system-ui" font-size="10" fill="#64748B" text-anchor="middle">3-6 months of expenses</text>
  <rect x="36" y="114" width="64" height="6" rx="3" fill="#E2E8F0"/>
  <rect x="36" y="114" width="52" height="6" rx="3" fill="#10B981"/>
  <text x="112" y="119" font-family="system-ui" font-size="9" fill="#10B981">80%</text>
  <text x="36" y="142" font-family="system-ui" font-size="10" fill="#64748B">Target: $15,000</text>
  <rect x="208" y="24" width="168" height="130" rx="12" fill="white" stroke="#E2E8F0"/>
  <rect x="240" y="40" width="80" height="20" rx="6" fill="#2563EB" opacity="0.1"/>
  <text x="280" y="54" font-family="system-ui" font-size="10" font-weight="600" fill="#2563EB" text-anchor="middle">Calculator</text>
  <text x="292" y="84" font-family="system-ui" font-size="13" font-weight="600" fill="#0F172A" text-anchor="middle">Monthly Expenses</text>
  <text x="292" y="108" font-family="system-ui" font-size="22" font-weight="700" fill="#0F172A" text-anchor="middle">$3,200</text>
  <text x="292" y="130" font-family="system-ui" font-size="10" fill="#64748B" text-anchor="middle">Need $9,600 saved</text>
  <text x="292" y="146" font-family="system-ui" font-size="9" fill="#10B981" text-anchor="middle">3-month minimum</text>
  <rect x="24" y="168" width="352" height="52" rx="10" fill="white" stroke="#E2E8F0"/>
  <text x="40" y="192" font-family="system-ui" font-size="11" font-weight="600" fill="#0F172A">Why an emergency fund matters</text>
  <text x="40" y="208" font-family="system-ui" font-size="9" fill="#64748B">Protects you from unexpected expenses without going into debt</text>
  <rect x="24" y="232" width="168" height="48" rx="10" fill="#F59E0B" opacity="0.05"/>
  <text x="40" y="254" font-family="system-ui" font-size="10" font-weight="600" fill="#92400E">Start building</text>
  <text x="40" y="268" font-family="system-ui" font-size="9" fill="#64748B">Even $50/mo adds up</text>
  <rect x="208" y="232" width="168" height="48" rx="10" fill="#10B981" opacity="0.05"/>
  <text x="224" y="254" font-family="system-ui" font-size="10" font-weight="600" fill="#065F46">Auto-save</text>
  <text x="224" y="268" font-family="system-ui" font-size="9" fill="#64748B">Set it and forget it</text>
</svg>