<svg xmlns="http://www.w3.org/2000/svg" viewBox="0 0 400 300" fill="none">
  <rect width="400" height="300" rx="16" fill="#F8FAFC"/>
  <circle cx="200" cy="55" r="35" fill="#F59E0B" opacity="0.08"/>
  <circle cx="200" cy="55" r="22" fill="#F59E0B" opacity="0.15"/>
  <path d="M192 55 L200 47 L208 63" stroke="#F59E0B" stroke-width="3" stroke-linecap="round" stroke-linejoin="round"/>
  <text x="200" y="108" font-family="system-ui" font-size="13" font-weight="600" fill="#0F172A" text-anchor="middle">Savings Goal</text>
  <text x="200" y="124" font-family="system-ui" font-size="10" fill="#64748B" text-anchor="middle">Track every dollar toward your target</text>
  <rect x="24" y="142" width="352" height="48" rx="12" fill="white" stroke="#E2E8F0"/>
  <text x="40" y="164" font-family="system-ui" font-size="11" fill="#64748B">Target Amount</text>
  <text x="160" y="164" font-family="system-ui" font-size="14" font-weight="700" fill="#0F172A">$50,000</text>
  <rect x="260" y="148" width="100" height="4" rx="2" fill="#E2E8F0"/>
  <rect x="260" y="148" width="60" height="4" rx="2" fill="#F59E0B"/>
  <text x="290" y="180" font-family="system-ui" font-size="9" fill="#F59E0B">60%</text>
  <rect x="24" y="202" width="168" height="80" rx="10" fill="white" stroke="#E2E8F0"/>
  <text x="40" y="224" font-family="system-ui" font-size="10" fill="#64748B">Monthly Save</text>
  <text x="40" y="246" font-family="system-ui" font-size="20" font-weight="700" fill="#0F172A">$420</text>
  <text x="40" y="268" font-family="system-ui" font-size="9" fill="#64748B">Recommended</text>
  <rect x="208" y="202" width="168" height="80" rx="10" fill="white" stroke="#E2E8F0"/>
  <text x="224" y="224" font-family="system-ui" font-size="10" fill="#64748B">Time to Goal</text>
  <text x="224" y="246" font-family="system-ui" font-size="20" font-weight="700" fill="#0F172A">5.2 yrs</text>
  <text x="224" y="268" font-family="system-ui" font-size="9" fill="#64748B">At current rate</text>
</svg>