<svg xmlns="http://www.w3.org/2000/svg" viewBox="0 0 400 300" fill="none">
  <rect width="400" height="300" rx="16" fill="#F8FAFC"/>
  <rect x="130" y="30" width="140" height="90" rx="12" fill="#8B5CF6" opacity="0.06"/>
  <rect x="145" y="42" width="110" height="66" rx="6" fill="white" stroke="#8B5CF6" stroke-width="1.5" stroke-opacity="0.3"/>
  <rect x="155" y="54" width="90" height="4" rx="2" fill="#8B5CF6" opacity="0.2"/>
  <rect x="155" y="64" width="70" height="4" rx="2" fill="#8B5CF6" opacity="0.3"/>
  <rect x="155" y="74" width="80" height="4" rx="2" fill="#8B5CF6" opacity="0.2"/>
  <rect x="155" y="88" width="40" height="12" rx="4" fill="#8B5CF6"/>
  <text x="175" y="97" font-family="system-ui" font-size="8" font-weight="600" fill="white" text-anchor="middle">1040</text>
  <text x="200" y="134" font-family="system-ui" font-size="13" font-weight="600" fill="#0F172A" text-anchor="middle">Tax Filing</text>
  <text x="200" y="150" font-family="system-ui" font-size="10" fill="#64748B" text-anchor="middle">Simple &amp; accurate</text>
  <rect x="24" y="172" width="168" height="110" rx="12" fill="white" stroke="#E2E8F0"/>
  <text x="40" y="194" font-family="system-ui" font-size="11" font-weight="600" fill="#0F172A">Your Tax Summary</text>
  <rect x="40" y="204" width="140" height="1" fill="#E2E8F0"/>
  <text x="40" y="222" font-family="system-ui" font-size="10" fill="#64748B">Taxable Income</text>
  <text x="160" y="222" font-family="system-ui" font-size="10" font-weight="600" fill="#0F172A">$75,000</text>
  <text x="40" y="242" font-family="system-ui" font-size="10" fill="#64748B">Total Tax</text>
  <text x="160" y="242" font-family="system-ui" font-size="10" font-weight="600" fill="#0F172A">$11,543</text>
  <text x="40" y="262" font-family="system-ui" font-size="10" fill="#64748B">Effective Rate</text>
  <text x="160" y="262" font-family="system-ui" font-size="10" font-weight="600" fill="#0F172A">15.4%</text>
  <rect x="208" y="172" width="168" height="110" rx="12" fill="white" stroke="#E2E8F0"/>
  <text x="224" y="194" font-family="system-ui" font-size="11" font-weight="600" fill="#0F172A">Bracket Breakdown</text>
  <rect x="224" y="204" width="140" height="1" fill="#E2E8F0"/>
  <rect x="224" y="214" width="16" height="8" rx="2" fill="#8B5CF6" opacity="0.8"/>
  <text x="248" y="222" font-family="system-ui" font-size="9" fill="#64748B">10% bracket: $1,100</text>
  <rect x="224" y="232" width="16" height="8" rx="2" fill="#8B5CF6" opacity="0.6"/>
  <text x="248" y="240" font-family="system-ui" font-size="9" fill="#64748B">12% bracket: $4,034</text>
  <rect x="224" y="250" width="16" height="8" rx="2" fill="#8B5CF6" opacity="0.4"/>
  <text x="248" y="258" font-family="system-ui" font-size="9" fill="#64748B">22% bracket: $6,409</text>
</svg>