<svg xmlns="http://www.w3.org/2000/svg" viewBox="0 0 400 300" fill="none">
  <rect width="400" height="300" rx="16" fill="#F8FAFC"/>
  <text x="200" y="32" font-family="system-ui" font-size="14" font-weight="700" fill="#0F172A" text-anchor="middle">Interest Breakdown</text>
  <rect x="24" y="48" width="168" height="58" rx="10" fill="white" stroke="#E2E8F0"/>
  <text x="40" y="68" font-family="system-ui" font-size="11" fill="#64748B">Principal</text>
  <text x="40" y="88" font-family="system-ui" font-size="20" font-weight="700" fill="#0F172A">$25,000</text>
  <rect x="208" y="48" width="168" height="58" rx="10" fill="white" stroke="#E2E8F0"/>
  <text x="224" y="68" font-family="system-ui" font-size="11" fill="#64748B">Interest Paid</text>
  <text x="224" y="88" font-family="system-ui" font-size="20" font-weight="700" fill="#F43F5E">$5,780</text>
  <rect x="24" y="118" width="352" height="164" rx="12" fill="white" stroke="#E2E8F0"/>
  <text x="40" y="140" font-family="system-ui" font-size="11" font-weight="600" fill="#0F172A">Amortization Schedule</text>
  <rect x="40" y="152" width="320" height="1" fill="#E2E8F0"/>
  <text x="40" y="168" font-family="system-ui" font-size="9" font-weight="600" fill="#64748B">Year</text>
  <text x="120" y="168" font-family="system-ui" font-size="9" font-weight="600" fill="#64748B">Payment</text>
  <text x="200" y="168" font-family="system-ui" font-size="9" font-weight="600" fill="#64748B">Principal</text>
  <text x="290" y="168" font-family="system-ui" font-size="9" font-weight="600" fill="#64748B">Interest</text>
  <rect x="40" y="176" width="320" height="1" fill="#E2E8F0"/>
  <text x="40" y="194" font-family="system-ui" font-size="9" fill="#64748B">1</text>
  <text x="120" y="194" font-family="system-ui" font-size="9" fill="#0F172A">$6,148</text>
  <text x="200" y="194" font-family="system-ui" font-size="9" fill="#10B981">$4,020</text>
  <text x="290" y="194" font-family="system-ui" font-size="9" fill="#F43F5E">$2,128</text>
  <rect x="40" y="204" width="320" height="1" fill="#E2E8F0"/>
  <text x="40" y="222" font-family="system-ui" font-size="9" fill="#64748B">2</text>
  <text x="120" y="222" font-family="system-ui" font-size="9" fill="#0F172A">$6,148</text>
  <text x="200" y="222" font-family="system-ui" font-size="9" fill="#10B981">$4,360</text>
  <text x="290" y="222" font-family="system-ui" font-size="9" fill="#F43F5E">$1,788</text>
  <rect x="40" y="232" width="320" height="1" fill="#E2E8F0"/>
  <text x="40" y="250" font-family="system-ui" font-size="9" fill="#64748B">3</text>
  <text x="120" y="250" font-family="system-ui" font-size="9" fill="#0F172A">$6,148</text>
  <text x="200" y="250" font-family="system-ui" font-size="9" fill="#10B981">$4,730</text>
  <text x="290" y="250" font-family="system-ui" font-size="9" fill="#F43F5E">$1,418</text>
  <rect x="40" y="260" width="320" height="1" fill="#E2E8F0"/>
  <text x="40" y="274" font-family="system-ui" font-size="9" fill="#64748B">...</text>
  <text x="120" y="274" font-family="system-ui" font-size="9" fill="#64748B">...</text>
  <text x="200" y="274" font-family="system-ui" font-size="9" fill="#64748B">...</text>
  <text x="290" y="274" font-family="system-ui" font-size="9" fill="#64748B">...</text>
</svg>