<svg xmlns="http://www.w3.org/2000/svg" viewBox="0 0 400 300" fill="none">
  <rect width="400" height="300" rx="16" fill="#F8FAFC"/>
  <text x="200" y="32" font-family="system-ui" font-size="14" font-weight="700" fill="#0F172A" text-anchor="middle">Loan Approval Process</text>
  <rect x="24" y="52" width="352" height="40" rx="8" fill="white" stroke="#E2E8F0"/>
  <circle cx="52" cy="72" r="12" fill="#10B981"/>
  <text x="49" y="76" font-family="system-ui" font-size="9" font-weight="700" fill="white">&#x2713;</text>
  <text x="74" y="70" font-family="system-ui" font-size="11" fill="#0F172A">Application Submitted</text>
  <text x="74" y="84" font-family="system-ui" font-size="9" fill="#64748B">Basic info verified</text>
  <rect x="24" y="100" width="352" height="40" rx="8" fill="white" stroke="#E2E8F0"/>
  <circle cx="52" cy="120" r="12" fill="#10B981"/>
  <text x="49" y="124" font-family="system-ui" font-size="9" font-weight="700" fill="white">&#x2713;</text>
  <text x="74" y="118" font-family="system-ui" font-size="11" fill="#0F172A">Credit Check</text>
  <text x="74" y="132" font-family="system-ui" font-size="9" fill="#64748B">Credit score &amp; history review</text>
  <rect x="24" y="148" width="352" height="40" rx="8" fill="white" stroke="#E2E8F0"/>
  <circle cx="52" cy="168" r="12" fill="#10B981"/>
  <text x="49" y="172" font-family="system-ui" font-size="9" font-weight="700" fill="white">&#x2713;</text>
  <text x="74" y="166" font-family="system-ui" font-size="11" fill="#0F172A">Income Verification</text>
  <text x="74" y="180" font-family="system-ui" font-size="9" fill="#64748B">Pay stubs &amp; employment check</text>
  <rect x="24" y="196" width="352" height="40" rx="8" fill="white" stroke="#E2E8F0"/>
  <circle cx="52" cy="216" r="12" fill="#E2E8F0"/>
  <text x="49" y="220" font-family="system-ui" font-size="9" font-weight="700" fill="#94A3B8">4</text>
  <text x="74" y="214" font-family="system-ui" font-size="11" fill="#0F172A">Final Approval</text>
  <text x="74" y="228" font-family="system-ui" font-size="9" fill="#64748B">Terms &amp; conditions</text>
  <rect x="24" y="244" width="352" height="40" rx="8" fill="white" stroke="#2563EB" stroke-width="1.5"/>
  <circle cx="52" cy="264" r="12" fill="#2563EB"/>
  <text x="49" y="268" font-family="system-ui" font-size="9" font-weight="700" fill="white">$</text>
  <text x="74" y="262" font-family="system-ui" font-size="11" font-weight="600" fill="#0F172A">Funding</text>
  <text x="74" y="276" font-family="system-ui" font-size="9" fill="#64748B">Money deposited in 1-2 days</text>
</svg>