<svg xmlns="http://www.w3.org/2000/svg" viewBox="0 0 400 300" fill="none">
  <rect width="400" height="300" rx="16" fill="#F8FAFC"/>
  <text x="200" y="30" font-family="system-ui" font-size="14" font-weight="700" fill="#0F172A" text-anchor="middle">Repayment Timeline</text>
  <rect x="24" y="48" width="352" height="36" rx="10" fill="white" stroke="#E2E8F0"/>
  <text x="40" y="71" font-family="system-ui" font-size="11" font-weight="600" fill="#0F172A">5-Year Loan</text>
  <text x="140" y="71" font-family="system-ui" font-size="10" fill="#64748B">|</text>
  <text x="160" y="71" font-family="system-ui" font-size="10" fill="#64748B">$25,000 at 8.5% APR</text>
  <rect x="290" y="52" width="72" height="24" rx="6" fill="#7C3AED" opacity="0.1"/>
  <text x="326" y="68" font-family="system-ui" font-size="9" font-weight="600" fill="#7C3AED" text-anchor="middle">$512/mo</text>
  <rect x="24" y="96" width="352" height="184" rx="12" fill="white" stroke="#E2E8F0"/>
  <rect x="40" y="112" width="320" height="6" rx="3" fill="#E2E8F0"/>
  <rect x="40" y="112" width="64" height="6" rx="3" fill="#7C3AED"/>
  <text x="40" y="134" font-family="system-ui" font-size="10" fill="#64748B">Year 1: $20,700 remaining</text>
  <rect x="40" y="148" width="320" height="6" rx="3" fill="#E2E8F0"/>
  <rect x="40" y="148" width="128" height="6" rx="3" fill="#7C3AED" opacity="0.8"/>
  <text x="40" y="170" font-family="system-ui" font-size="10" fill="#64748B">Year 2: $15,800 remaining</text>
  <rect x="40" y="184" width="320" height="6" rx="3" fill="#E2E8F0"/>
  <rect x="40" y="184" width="192" height="6" rx="3" fill="#7C3AED" opacity="0.6"/>
  <text x="40" y="206" font-family="system-ui" font-size="10" fill="#64748B">Year 3: $10,300 remaining</text>
  <rect x="40" y="220" width="320" height="6" rx="3" fill="#E2E8F0"/>
  <rect x="40" y="220" width="256" height="6" rx="3" fill="#7C3AED" opacity="0.4"/>
  <text x="40" y="242" font-family="system-ui" font-size="10" fill="#64748B">Year 4: $5,200 remaining</text>
  <rect x="40" y="256" width="320" height="6" rx="3" fill="#E2E8F0"/>
  <rect x="40" y="256" width="316" height="6" rx="3" fill="#10B981"/>
  <text x="40" y="274" font-family="system-ui" font-size="10" fill="#10B981">Year 5: $0 paid off!</text>
</svg>