<svg xmlns="http://www.w3.org/2000/svg" viewBox="0 0 400 300" fill="none">
  <rect width="400" height="300" rx="16" fill="#F8FAFC"/>
  <text x="200" y="30" font-family="system-ui" font-size="14" font-weight="700" fill="#0F172A" text-anchor="middle">ETF vs Mutual Fund</text>
  <rect x="24" y="48" width="168" height="236" rx="12" fill="white" stroke="#E2E8F0"/>
  <rect x="36" y="60" width="48" height="24" rx="6" fill="#2563EB" opacity="0.1"/>
  <text x="60" y="76" font-family="system-ui" font-size="12" font-weight="700" fill="#2563EB" text-anchor="middle">ETF</text>
  <rect x="36" y="90" width="144" height="1" fill="#E2E8F0"/>
  <text x="36" y="108" font-family="system-ui" font-size="10" fill="#64748B">Trading</text>
  <text x="160" y="108" font-family="system-ui" font-size="10" font-weight="600" fill="#0F172A">Real-time</text>
  <text x="36" y="126" font-family="system-ui" font-size="10" fill="#64748B">Expense Ratio</text>
  <text x="160" y="126" font-family="system-ui" font-size="10" font-weight="600" fill="#10B981">0.03-0.10%</text>
  <text x="36" y="144" font-family="system-ui" font-size="10" fill="#64748B">Minimum Investment</text>
  <text x="160" y="144" font-family="system-ui" font-size="10" font-weight="600" fill="#10B981">1 share</text>
  <rect x="36" y="154" width="144" height="1" fill="#E2E8F0"/>
  <text x="36" y="172" font-family="system-ui" font-size="10" fill="#64748B">Tax Efficiency</text>
  <text x="160" y="172" font-family="system-ui" font-size="10" font-weight="600" fill="#10B981">Higher</text>
  <text x="36" y="192" font-family="system-ui" font-size="10" fill="#64748B">Auto-Invest</text>
  <text x="160" y="192" font-family="system-ui" font-size="10" font-weight="600" fill="#F43F5E">Limited</text>
  <text x="36" y="212" font-family="system-ui" font-size="10" fill="#64748B">Management Style</text>
  <text x="160" y="212" font-family="system-ui" font-size="10" font-weight="600" fill="#64748B">Passive</text>
  <rect x="36" y="224" width="144" height="1" fill="#E2E8F0"/>
  <text x="36" y="242" font-family="system-ui" font-size="9" fill="#64748B">Best for:</text>
  <text x="36" y="258" font-family="system-ui" font-size="9" fill="#64748B">Cost-conscious investors</text>
  <text x="36" y="274" font-family="system-ui" font-size="9" fill="#64748B">Active traders</text>
  <rect x="208" y="48" width="168" height="236" rx="12" fill="white" stroke="#E2E8F0"/>
  <rect x="220" y="60" width="80" height="24" rx="6" fill="#0D9488" opacity="0.1"/>
  <text x="260" y="76" font-family="system-ui" font-size="12" font-weight="700" fill="#0D9488" text-anchor="middle">Mutual Fund</text>
  <rect x="220" y="90" width="144" height="1" fill="#E2E8F0"/>
  <text x="220" y="108" font-family="system-ui" font-size="10" fill="#64748B">Trading</text>
  <text x="344" y="108" font-family="system-ui" font-size="10" font-weight="600" fill="#0F172A">End-of-day</text>
  <text x="220" y="126" font-family="system-ui" font-size="10" fill="#64748B">Expense Ratio</text>
  <text x="344" y="126" font-family="system-ui" font-size="10" font-weight="600" fill="#F43F5E">0.50-1.50%</text>
  <text x="220" y="144" font-family="system-ui" font-size="10" fill="#64748B">Minimum Investment</text>
  <text x="344" y="144" font-family="system-ui" font-size="10" font-weight="600" fill="#0F172A">$1,000+</text>
  <rect x="220" y="154" width="144" height="1" fill="#E2E8F0"/>
  <text x="220" y="172" font-family="system-ui" font-size="10" fill="#64748B">Tax Efficiency</text>
  <text x="344" y="172" font-family="system-ui" font-size="10" font-weight="600" fill="#F43F5E">Lower</text>
  <text x="220" y="192" font-family="system-ui" font-size="10" fill="#64748B">Auto-Invest</text>
  <text x="344" y="192" font-family="system-ui" font-size="10" font-weight="600" fill="#10B981">Full</text>
  <text x="220" y="212" font-family="system-ui" font-size="10" fill="#64748B">Management Style</text>
  <text x="344" y="212" font-family="system-ui" font-size="10" font-weight="600" fill="#64748B">Active or Passive</text>
  <rect x="220" y="224" width="144" height="1" fill="#E2E8F0"/>
  <text x="220" y="242" font-family="system-ui" font-size="9" fill="#64748B">Best for:</text>
  <text x="220" y="258" font-family="system-ui" font-size="9" fill="#64748B">Automatic investors</text>
  <text x="220" y="274" font-family="system-ui" font-size="9" fill="#64748B">Fractional shares</text>
</svg>