<svg xmlns="http://www.w3.org/2000/svg" viewBox="0 0 400 300" fill="none">
  <rect width="400" height="300" rx="16" fill="#F8FAFC"/>
  <text x="200" y="30" font-family="system-ui" font-size="14" font-weight="700" fill="#0F172A" text-anchor="middle">Rent vs Buy</text>
  <rect x="24" y="48" width="168" height="236" rx="12" fill="white" stroke="#E2E8F0"/>
  <rect x="36" y="60" width="60" height="24" rx="6" fill="#F43F5E" opacity="0.1"/>
  <text x="66" y="76" font-family="system-ui" font-size="12" font-weight="700" fill="#F43F5E" text-anchor="middle">Rent</text>
  <rect x="36" y="90" width="144" height="1" fill="#E2E8F0"/>
  <text x="36" y="108" font-family="system-ui" font-size="10" fill="#64748B">Monthly Payment</text>
  <text x="160" y="108" font-family="system-ui" font-size="10" font-weight="600" fill="#0F172A">$1,500</text>
  <text x="36" y="128" font-family="system-ui" font-size="10" fill="#64748B">Upfront Cost</text>
  <text x="160" y="128" font-family="system-ui" font-size="10" font-weight="600" fill="#0F172A">$3,000</text>
  <text x="36" y="148" font-family="system-ui" font-size="10" fill="#64748B">Maintenance</text>
  <text x="160" y="148" font-family="system-ui" font-size="10" font-weight="600" fill="#0F172A">$0</text>
  <rect x="36" y="158" width="144" height="1" fill="#E2E8F0"/>
  <text x="36" y="176" font-family="system-ui" font-size="10" fill="#64748B">5 Year Cost</text>
  <text x="160" y="176" font-family="system-ui" font-size="10" font-weight="600" fill="#0F172A">$93,000</text>
  <text x="36" y="196" font-family="system-ui" font-size="10" fill="#64748B">10 Year Cost</text>
  <text x="160" y="196" font-family="system-ui" font-size="10" font-weight="600" fill="#0F172A">$183,000</text>
  <text x="36" y="216" font-family="system-ui" font-size="10" fill="#64748B">30 Year Cost</text>
  <text x="160" y="216" font-family="system-ui" font-size="10" font-weight="600" fill="#0F172A">$543,000</text>
  <rect x="36" y="226" width="144" height="1" fill="#E2E8F0"/>
  <text x="36" y="244" font-family="system-ui" font-size="10" fill="#64748B">Equity Built</text>
  <text x="160" y="244" font-family="system-ui" font-size="10" font-weight="600" fill="#F43F5E">$0</text>
  <text x="36" y="264" font-family="system-ui" font-size="10" fill="#64748B">Flexibility</text>
  <text x="160" y="264" font-family="system-ui" font-size="10" font-weight="600" fill="#10B981">High</text>
  <rect x="208" y="48" width="168" height="236" rx="12" fill="white" stroke="#E2E8F0"/>
  <rect x="220" y="60" width="60" height="24" rx="6" fill="#2563EB" opacity="0.1"/>
  <text x="250" y="76" font-family="system-ui" font-size="12" font-weight="700" fill="#2563EB" text-anchor="middle">Buy</text>
  <rect x="220" y="90" width="144" height="1" fill="#E2E8F0"/>
  <text x="220" y="108" font-family="system-ui" font-size="10" fill="#64748B">Monthly Payment</text>
  <text x="344" y="108" font-family="system-ui" font-size="10" font-weight="600" fill="#0F172A">$1,864</text>
  <text x="220" y="128" font-family="system-ui" font-size="10" fill="#64748B">Upfront Cost (20%)</text>
  <text x="344" y="128" font-family="system-ui" font-size="10" font-weight="600" fill="#0F172A">$64,000</text>
  <text x="220" y="148" font-family="system-ui" font-size="10" fill="#64748B">Maintenance</text>
  <text x="344" y="148" font-family="system-ui" font-size="10" font-weight="600" fill="#0F172A">$5,000/yr</text>
  <rect x="220" y="158" width="144" height="1" fill="#E2E8F0"/>
  <text x="220" y="176" font-family="system-ui" font-size="10" fill="#64748B">5 Year Cost</text>
  <text x="344" y="176" font-family="system-ui" font-size="10" font-weight="600" fill="#0F172A">$148,000</text>
  <text x="220" y="196" font-family="system-ui" font-size="10" fill="#64748B">10 Year Cost</text>
  <text x="344" y="196" font-family="system-ui" font-size="10" font-weight="600" fill="#0F172A">$260,000</text>
  <text x="220" y="216" font-family="system-ui" font-size="10" fill="#64748B">30 Year Cost</text>
  <text x="344" y="216" font-family="system-ui" font-size="10" font-weight="600" fill="#0F172A">$670,000</text>
  <rect x="220" y="226" width="144" height="1" fill="#E2E8F0"/>
  <text x="220" y="244" font-family="system-ui" font-size="10" fill="#64748B">Equity Built</text>
  <text x="344" y="244" font-family="system-ui" font-size="10" font-weight="600" fill="#2563EB">$320,000+</text>
  <text x="220" y="264" font-family="system-ui" font-size="10" fill="#64748B">Flexibility</text>
  <text x="344" y="264" font-family="system-ui" font-size="10" font-weight="600" fill="#F43F5E">Low</text>
</svg>