<svg xmlns="http://www.w3.org/2000/svg" viewBox="0 0 400 300" fill="none">
  <rect width="400" height="300" rx="16" fill="#F8FAFC"/>
  <rect x="140" y="30" width="120" height="90" rx="14" fill="#2563EB" opacity="0.06"/>
  <circle cx="200" cy="52" r="18" fill="#2563EB" opacity="0.1"/>
  <circle cx="200" cy="52" r="8" fill="#2563EB" opacity="0.2"/>
  <rect x="180" y="72" width="40" height="20" rx="5" fill="white" stroke="#2563EB" stroke-width="1.5" stroke-opacity="0.3"/>
  <rect x="188" y="76" width="24" height="2" rx="1" fill="#2563EB" opacity="0.3"/>
  <rect x="188" y="82" width="18" height="2" rx="1" fill="#2563EB" opacity="0.3"/>
  <text x="200" y="134" font-family="system-ui" font-size="13" font-weight="600" fill="#0F172A" text-anchor="middle">No Login Required</text>
  <text x="200" y="150" font-family="system-ui" font-size="10" fill="#64748B" text-anchor="middle">Start calculating in seconds</text>
  <rect x="24" y="168" width="352" height="52" rx="10" fill="white" stroke="#E2E8F0"/>
  <circle cx="52" cy="194" r="12" fill="#2563EB" opacity="0.1"/>
  <text x="46" y="198" font-family="system-ui" font-size="10" font-weight="700" fill="#2563EB">1.</text>
  <text x="72" y="190" font-family="system-ui" font-size="11" font-weight="600" fill="#0F172A">Open any calculator</text>
  <text x="72" y="206" font-family="system-ui" font-size="9" fill="#64748B">No sign-up, no email, no account needed</text>
  <rect x="24" y="232" width="352" height="52" rx="10" fill="white" stroke="#E2E8F0"/>
  <circle cx="52" cy="258" r="12" fill="#2563EB" opacity="0.1"/>
  <text x="46" y="262" font-family="system-ui" font-size="10" font-weight="700" fill="#2563EB">2.</text>
  <text x="72" y="254" font-family="system-ui" font-size="11" font-weight="600" fill="#0F172A">Enter your numbers</text>
  <text x="72" y="270" font-family="system-ui" font-size="9" fill="#64748B">Get instant, accurate results</text>
</svg>