<svg xmlns="http://www.w3.org/2000/svg" viewBox="0 0 400 300" fill="none">
  <rect width="400" height="300" rx="16" fill="#F8FAFC"/>
  <rect x="140" y="30" width="120" height="90" rx="12" fill="#2563EB" opacity="0.06"/>
  <rect x="155" y="42" width="90" height="66" rx="6" fill="white" stroke="#2563EB" stroke-width="2" stroke-opacity="0.3"/>
  <rect x="165" y="52" width="70" height="48" rx="4" fill="#2563EB" opacity="0.05"/>
  <path d="M200 56 L185 66 L195 66 L195 88 L205 88 L205 66 L215 66 Z" fill="#2563EB" opacity="0.3"/>
  <path d="M200 60 L190 67 L197 67 L197 84 L203 84 L203 67 L210 67 Z" fill="#2563EB"/>
  <text x="200" y="134" font-family="system-ui" font-size="13" font-weight="600" fill="#0F172A" text-anchor="middle">Privacy First</text>
  <text x="200" y="150" font-family="system-ui" font-size="10" fill="#64748B" text-anchor="middle">Your data stays on your device</text>
  <rect x="24" y="170" width="352" height="48" rx="10" fill="white" stroke="#E2E8F0"/>
  <circle cx="52" cy="194" r="10" fill="#10B981" opacity="0.15"/>
  <text x="48" y="198" font-family="system-ui" font-size="10" font-weight="700" fill="#10B981">&#x2713;</text>
  <text x="72" y="190" font-family="system-ui" font-size="12" font-weight="600" fill="#0F172A">100% Local Processing</text>
  <text x="72" y="206" font-family="system-ui" font-size="9" fill="#64748B">All calculations run in your browser, not on our servers</text>
  <rect x="24" y="228" width="352" height="48" rx="10" fill="white" stroke="#E2E8F0"/>
  <circle cx="52" cy="252" r="10" fill="#10B981" opacity="0.15"/>
  <text x="48" y="256" font-family="system-ui" font-size="10" font-weight="700" fill="#10B981">&#x2713;</text>
  <text x="72" y="248" font-family="system-ui" font-size="12" font-weight="600" fill="#0F172A">Zero Data Storage</text>
  <text x="72" y="264" font-family="system-ui" font-size="9" fill="#64748B">We never see, store, or share your financial information</text>
</svg>